<?xml version="1.0" encoding="utf-8" standalone="yes" ?>
<svg xmlns="http://www.w3.org/2000/svg" version="1.1" width="24px" height="24px" viewBox="0 0 24 24">
    <ellipse cx="12" cy="12" rx="8" ry="8" fill="none" stroke="#000000" stroke-width="2"/>
    <!--
            <path d="M 12 4 L 12 7" fill="none" stroke="#000000" stroke-width="1" transform="rotate(0 12 12)"/>
            <path d="M 12 4 L 12 7" fill="none" stroke="#000000" stroke-width="1" transform="rotate(30 12 12)"/>
            <path d="M 12 4 L 12 7" fill="none" stroke="#000000" stroke-width="1" transform="rotate(60 12 12)"/>
            <path d="M 12 4 L 12 7" fill="none" stroke="#000000" stroke-width="1" transform="rotate(90 12 12)"/>
            <path d="M 12 4 L 12 7" fill="none" stroke="#000000" stroke-width="1" transform="rotate(120 12 12)"/>
            <path d="M 12 4 L 12 7" fill="none" stroke="#000000" stroke-width="1" transform="rotate(150 12 12)"/>
            <path d="M 12 4 L 12 7" fill="none" stroke="#000000" stroke-width="1" transform="rotate(180 12 12)"/>
            <path d="M 12 4 L 12 7" fill="none" stroke="#000000" stroke-width="1" transform="rotate(210 12 12)"/>
            <path d="M 12 4 L 12 7" fill="none" stroke="#000000" stroke-width="1" transform="rotate(240 12 12)"/>
            <path d="M 12 4 L 12 7" fill="none" stroke="#000000" stroke-width="1" transform="rotate(270 12 12)"/>
            <path d="M 12 4 L 12 7" fill="none" stroke="#000000" stroke-width="1" transform="rotate(300 12 12)"/>
            <path d="M 12 4 L 12 7" fill="none" stroke="#000000" stroke-width="1" transform="rotate(330 12 12)"/>

            <path d="M 12 6 L 12 12.5" fill="none" stroke="#000000" stroke-width="1" transform="rotate(15 12 12)"/>
            <path d="M 12 8 L 12 12" fill="none" stroke="#000000" stroke-width="1" transform="rotate(105 12 12)"/>
    -->
    <path d="M 12 7 L 12 12 L 15 14.5" fill="none" stroke="#000000" stroke-width="2"/>
</svg>