<?xml version="1.0" encoding="utf-8" standalone="yes" ?>
<svg xmlns="http://www.w3.org/2000/svg" version="1.1" width="24px" height="24px" viewBox="0 0 24 24">
    <rect x="4" y="10.5" width="4" height="3" fill="#000000" transform="rotate(0 12 12)"/>
    <rect x="4" y="10.5" width="4" height="3" fill="#000000" transform="rotate(45 12 12)"/>
    <rect x="4" y="10.5" width="4" height="3" fill="#000000" transform="rotate(90 12 12)"/>
    <rect x="4" y="10.5" width="4" height="3" fill="#000000" transform="rotate(135 12 12)"/>
    <rect x="4" y="10.5" width="4" height="3" fill="#000000" transform="rotate(180 12 12)"/>
    <rect x="4" y="10.5" width="4" height="3" fill="#000000" transform="rotate(225 12 12)"/>
    <rect x="4" y="10.5" width="4" height="3" fill="#000000" transform="rotate(270 12 12)"/>
    <rect x="4" y="10.5" width="4" height="3" fill="#000000" transform="rotate(315 12 12)"/>
    <ellipse cx="12" cy="12" rx="4" ry="4" fill="none" stroke="#000000" stroke-width="3"/>
</svg>